<?xml version="1.0" encoding="UTF-8" standalone="no"?>
<!DOCTYPE svg PUBLIC "-//W3C//DTD SVG 1.1//EN" "http://www.w3.org/Graphics/SVG/1.1/DTD/svg11.dtd">
<svg width="100%" height="100%" viewBox="0 0 2550 3300" version="1.1" xmlns="http://www.w3.org/2000/svg" xmlns:xlink="http://www.w3.org/1999/xlink" xml:space="preserve" xmlns:serif="http://www.serif.com/" style="fill-rule:evenodd;clip-rule:evenodd;stroke-linejoin:round;stroke-miterlimit:2;">
    <g>
        <g transform="matrix(1,0,0,1,-9,0)">
            <g transform="matrix(1,0,0,1,-251.54,-7.40354)">
                <path d="M1762.96,1151.97C1829.62,1151.97 1883.74,1206.09 1883.74,1272.75C1883.74,1339.42 1829.62,1393.54 1762.96,1393.54C1696.29,1393.54 1695.71,1342.62 1695.71,1275.96C1695.71,1209.3 1696.29,1151.97 1762.96,1151.97Z" style="fill:rgb(255,0,0);"/>
            </g>
            <g transform="matrix(0.563646,-0.368069,0.546762,0.837288,20.2759,764.451)">
                <ellipse cx="1540.9" cy="1212.54" rx="33.266" ry="31.595" style="fill:rgb(212,191,191);"/>
            </g>
        </g>
        <g transform="matrix(-1,0,0,1,2383.79,0)">
            <g transform="matrix(1,0,0,1,-251.54,-7.40354)">
                <path d="M1762.96,1151.97C1829.62,1151.97 1883.74,1206.09 1883.74,1272.75C1883.74,1339.42 1829.62,1393.54 1762.96,1393.54C1696.29,1393.54 1695.71,1342.62 1695.71,1275.96C1695.71,1209.3 1696.29,1151.97 1762.96,1151.97Z" style="fill:rgb(255,0,0);"/>
            </g>
            <g transform="matrix(0.563646,-0.368069,0.546762,0.837288,20.2759,764.451)">
                <ellipse cx="1540.9" cy="1212.54" rx="33.266" ry="31.595" style="fill:rgb(212,191,191);"/>
            </g>
        </g>
        <g transform="matrix(546.062,0,0,734.38,916.305,1481.9)">
            <path d="M0.301,-0.25L0.394,-0.527C0.4,-0.545 0.408,-0.558 0.418,-0.567C0.429,-0.575 0.443,-0.579 0.46,-0.579L0.536,-0.579C0.558,-0.579 0.574,-0.575 0.584,-0.566C0.593,-0.558 0.598,-0.544 0.598,-0.525C0.598,-0.507 0.594,-0.494 0.584,-0.485C0.575,-0.476 0.562,-0.471 0.544,-0.471L0.536,-0.471L0.55,-0.107L0.558,-0.107C0.576,-0.107 0.589,-0.102 0.598,-0.094C0.606,-0.085 0.611,-0.071 0.611,-0.054C0.611,-0.035 0.606,-0.021 0.597,-0.013C0.588,-0.004 0.572,0 0.55,0L0.44,0C0.418,0 0.402,-0.004 0.393,-0.012C0.384,-0.021 0.379,-0.035 0.379,-0.054C0.379,-0.071 0.383,-0.085 0.392,-0.094C0.401,-0.102 0.415,-0.107 0.432,-0.107L0.44,-0.107L0.433,-0.405L0.362,-0.183C0.357,-0.167 0.349,-0.155 0.34,-0.147C0.33,-0.14 0.317,-0.136 0.3,-0.136C0.283,-0.136 0.269,-0.14 0.26,-0.147C0.25,-0.155 0.242,-0.167 0.237,-0.183L0.166,-0.405L0.159,-0.107L0.167,-0.107C0.185,-0.107 0.198,-0.102 0.207,-0.094C0.216,-0.085 0.22,-0.071 0.22,-0.054C0.22,-0.035 0.215,-0.021 0.206,-0.013C0.197,-0.004 0.181,0 0.159,0L0.049,0C0.027,0 0.011,-0.004 0.002,-0.013C-0.007,-0.021 -0.012,-0.035 -0.012,-0.054C-0.012,-0.071 -0.008,-0.085 0.001,-0.094C0.01,-0.102 0.023,-0.107 0.041,-0.107L0.049,-0.107L0.063,-0.471L-0.11,-0.471C-0.127,-0.471 -0.141,-0.476 -0.15,-0.485C-0.159,-0.494 -0.164,-0.507 -0.164,-0.525C-0.164,-0.544 -0.159,-0.558 -0.149,-0.566C-0.14,-0.575 -0.124,-0.579 -0.102,-0.579L0.139,-0.579C0.156,-0.579 0.17,-0.575 0.18,-0.567C0.19,-0.559 0.199,-0.545 0.205,-0.527L0.301,-0.25Z" style="fill:white;fill-rule:nonzero;"/>
        </g>
        <g transform="matrix(546.062,0,0,734.38,1131.09,1481.9)">
            <path d="M0.301,-0.25L0.394,-0.527C0.4,-0.545 0.408,-0.558 0.418,-0.567C0.429,-0.575 0.443,-0.579 0.46,-0.579L0.701,-0.579C0.723,-0.579 0.739,-0.575 0.749,-0.566C0.758,-0.558 0.763,-0.544 0.763,-0.525C0.763,-0.507 0.758,-0.494 0.749,-0.485C0.74,-0.476 0.726,-0.471 0.709,-0.471L0.536,-0.471L0.55,-0.107L0.558,-0.107C0.576,-0.107 0.589,-0.102 0.598,-0.094C0.606,-0.085 0.611,-0.071 0.611,-0.054C0.611,-0.035 0.606,-0.021 0.597,-0.013C0.588,-0.004 0.572,0 0.55,0L0.44,0C0.418,0 0.402,-0.004 0.393,-0.012C0.384,-0.021 0.379,-0.035 0.379,-0.054C0.379,-0.071 0.383,-0.085 0.392,-0.094C0.401,-0.102 0.415,-0.107 0.432,-0.107L0.44,-0.107L0.433,-0.405L0.362,-0.183C0.357,-0.167 0.349,-0.155 0.34,-0.147C0.33,-0.14 0.317,-0.136 0.3,-0.136C0.283,-0.136 0.269,-0.14 0.26,-0.147C0.25,-0.155 0.242,-0.167 0.237,-0.183L0.166,-0.405L0.159,-0.107L0.167,-0.107C0.185,-0.107 0.198,-0.102 0.207,-0.094C0.216,-0.085 0.22,-0.071 0.22,-0.054C0.22,-0.035 0.215,-0.021 0.206,-0.013C0.197,-0.004 0.181,0 0.159,0L0.049,0C0.027,0 0.011,-0.004 0.002,-0.013C-0.007,-0.021 -0.012,-0.035 -0.012,-0.054C-0.012,-0.071 -0.008,-0.085 0.001,-0.094C0.01,-0.102 0.023,-0.107 0.041,-0.107L0.049,-0.107L0.063,-0.471L0.055,-0.471C0.038,-0.471 0.024,-0.476 0.015,-0.485C0.006,-0.494 0.001,-0.507 0.001,-0.525C0.001,-0.544 0.006,-0.558 0.015,-0.566C0.025,-0.575 0.041,-0.579 0.063,-0.579L0.139,-0.579C0.156,-0.579 0.17,-0.575 0.18,-0.567C0.19,-0.559 0.199,-0.545 0.205,-0.527L0.301,-0.25Z" style="fill:white;fill-rule:nonzero;"/>
        </g>
    </g>
</svg>
